<svg version="1.1" id="Layer_1" xmlns="http://www.w3.org/2000/svg" xmlns:xlink="http://www.w3.org/1999/xlink" x="0px" y="0px"
	 width="100%" viewBox="0 0 779 779" enable-background="new 0 0 779 779" xml:space="preserve">
<path fill="none" opacity="1.000000" stroke="#000000" stroke-linecap="round" stroke-linejoin="round" stroke-width="17.000000"
	d="
M257.500000,338.500000 
	C251.836975,338.603394 246.690475,341.194458 241.039001,341.840881 
	C237.382385,342.259216 235.599777,347.072083 235.570969,351.000519 
	C235.419388,371.666077 235.494171,392.333344 235.521133,412.999969 
	C235.522217,413.833527 235.549500,414.934113 236.043823,415.458710 
	C241.121201,420.847076 238.464905,427.020172 238.038589,433.002747 
	C237.821457,436.050232 235.601349,437.093597 233.517548,438.525543 
	C224.143921,444.966919 214.893173,451.588501 205.471970,457.958527 
	C201.435501,460.687775 199.824509,463.988434 199.885208,469.001404 
	C200.151520,490.998169 200.015961,513.000000 199.992630,535.000000 
	C199.982391,544.669067 202.607147,545.560120 210.500107,545.528015 
	C230.999771,545.444641 251.500046,545.473633 271.999969,545.513123 
	C280.045990,545.528625 281.762360,546.112854 281.969574,555.500671 
	C282.124023,562.497253 281.603088,569.528625 282.105255,576.492432 
	C282.672302,584.355408 282.650452,584.566467 290.505768,584.825500 
	C297.639008,585.060730 304.808075,585.617004 312.077942,583.814331 
	C315.934479,582.858093 320.548492,585.483032 325.000458,585.004150 
	C336.332458,583.785278 347.665955,585.122253 359.000183,585.022034 
	C370.332642,584.921814 381.666656,585.000000 393.000000,585.000000 
	C404.166656,585.000000 415.333344,585.000000 426.500000,585.000000 
	C437.833344,585.000000 449.217896,585.659058 460.483154,584.783325 
	C468.901917,584.128784 477.229401,585.966736 485.483582,584.875732 
	C495.054108,583.610779 504.495544,585.700378 514.001404,585.019531 
	C521.642944,584.472229 523.505981,583.678162 523.500854,575.500000 
	C523.496765,569.000000 523.462524,562.499756 523.509827,556.000061 
	C523.565002,548.416443 525.824341,546.019409 533.499939,546.037659 
	C547.000244,546.069763 560.500122,546.324280 573.999939,546.503296 
	C582.411560,546.614807 583.959412,544.900696 583.966614,536.500000 
	C584.025818,467.500031 583.945557,398.499847 584.123840,329.500305 
	C584.135559,324.948090 581.787354,322.474487 578.969604,320.035095 
	C570.386719,312.604950 561.661743,305.339142 553.001343,297.998383 
	C544.161804,290.505737 535.356140,282.972809 526.485657,275.517029 
	C523.920776,273.361206 523.462219,270.634338 523.467651,267.499939 
	C523.521301,236.833359 523.456299,206.166565 523.527527,175.500061 
	C523.548035,166.683136 522.119629,164.923569 513.001160,165.071320 
	C506.992920,165.168701 500.919403,165.627762 494.969727,165.963379 
	C489.423706,166.276230 483.239868,164.330673 477.531097,165.203491 
	C470.236206,166.318817 463.172089,164.727188 455.998474,164.951019 
	C448.838776,165.174408 441.665833,165.068634 434.500214,164.981873 
	C426.351929,164.883209 425.096191,163.648117 425.020966,155.499802 
	C424.931732,145.833954 425.074005,136.165939 424.979004,126.500206 
	C424.885803,117.018013 422.541138,116.228859 414.499207,116.033165 
	C407.836487,115.871017 401.137115,115.605583 394.507660,116.102226 
	C386.645020,116.691261 386.516632,116.644699 386.125702,124.506248 
	C385.613129,134.814087 386.079437,145.167480 385.974609,155.499741 
	C385.892273,163.616211 384.814240,164.809555 376.499786,164.990219 
	C373.667786,165.051758 370.830444,165.082748 368.000580,164.983459 
	C361.346558,164.749985 359.653351,163.028687 359.505646,156.499878 
	C359.467987,154.834045 359.595032,153.160217 359.482361,151.501205 
	C359.133301,146.361664 356.592102,143.653244 351.499054,143.545074 
	C343.502655,143.375259 335.497742,143.385269 327.500854,143.542999 
	C322.703278,143.637634 320.822266,145.447769 320.015839,150.002808 
	C319.901398,150.649216 319.973114,151.334579 320.003998,151.999817 
	C320.643097,165.769699 317.752747,164.949570 306.500244,165.033783 
	C301.969727,165.067688 297.483154,165.425278 292.940613,166.100357 
	C289.355438,166.633163 285.088348,164.868469 280.999512,164.982895 
	C276.811554,165.100082 272.482513,164.409485 268.556122,166.128220 
	C267.203217,166.720459 266.351776,166.148788 265.523285,165.916855 
	C258.400055,163.922928 251.155075,165.094971 244.001175,165.150604 
	C239.427856,165.186142 238.114258,167.429810 238.029953,173.000458 
	C237.911453,180.831985 238.069092,188.667450 237.980957,196.499786 
	C237.889282,204.648087 236.648087,205.880035 228.499771,205.982376 
	C221.667526,206.068192 214.831421,205.899857 208.000580,206.030060 
	C201.970444,206.144974 200.077408,207.971344 200.035461,214.000244 
	C199.928818,229.332840 200.006149,244.666672 199.993866,260.000000 
	C199.991837,262.522797 200.731506,264.354980 202.937607,266.079803 
	C212.216309,273.334259 222.439789,279.179504 232.110626,285.839355 
	C236.446014,288.824982 238.230957,291.850159 238.094849,297.002502 
	C237.791245,308.494476 238.075027,320.000793 237.955139,331.499542 
	C237.918289,335.034363 238.533401,338.326660 240.000000,341.500000 
"/>
<path fill="none" opacity="1.000000" stroke="#000000" stroke-linecap="round" stroke-linejoin="round" stroke-width="14.000000"
	d="
M469.500000,167.000000 
	C469.500000,225.666672 469.532227,284.333405 469.428345,342.999878 
	C469.421326,346.962952 470.322937,349.945160 473.461395,352.546600 
	C483.565094,360.921478 493.436157,369.576904 503.533386,377.959808 
	C507.262146,381.055420 508.663696,384.534515 508.624023,389.500977 
	C508.377625,420.332367 508.499451,451.166656 508.500824,482.000000 
	C508.500977,485.120056 508.751068,488.265869 506.941254,491.582153 
	C498.923615,493.544312 490.168457,492.331177 481.499207,492.431732 
	C469.951111,492.565704 469.414429,492.371277 469.465881,504.500153 
	C469.576843,530.666382 469.500000,556.833313 469.500000,583.000000 
"/>
<path fill="none" opacity="1.000000" stroke="#000000" stroke-linecap="round" stroke-linejoin="round" stroke-width="14.000000"
	d="
M494.500000,167.000000 
	C494.500000,204.666672 494.732361,242.336075 494.287354,279.997498 
	C494.206543,286.838013 496.785095,291.063263 501.486237,295.016357 
	C511.531189,303.462921 521.494629,312.006348 531.505188,320.493927 
	C533.223938,321.951202 533.987793,323.738281 534.025452,325.999573 
	C534.111572,331.167572 534.474976,336.333252 534.478210,341.500000 
	C534.513123,397.166656 534.500732,452.833344 534.499268,508.500000 
	C534.499023,516.492920 533.492920,517.496460 525.500000,517.499390 
	C517.666687,517.502258 509.833038,517.457031 502.000092,517.513977 
	C496.074280,517.557007 494.528473,519.074524 494.515656,525.000061 
	C494.473846,544.333252 494.500000,563.666687 494.500000,583.000000 
"/>
<path fill="none" opacity="1.000000" stroke="#000000" stroke-linecap="round" stroke-linejoin="round" stroke-width="14.000000"
	d="
M292.500000,167.000000 
	C292.500000,202.500000 292.417572,238.000443 292.607300,273.499420 
	C292.630249,277.794617 291.371246,280.419220 287.505798,282.014038 
	C282.039642,284.269318 277.362030,288.133972 271.014404,288.670380 
	C266.653656,289.038910 260.500000,298.338959 260.500000,303.000000 
	C260.500000,311.500000 260.500000,320.000000 260.500000,328.500000 
	C260.500000,329.333344 260.779144,330.298981 260.456604,330.979431 
	C257.397003,337.434113 260.274231,343.681061 260.992584,350.000854 
	C261.048706,350.494476 261.117706,351.034546 260.982574,351.494873 
	C258.387848,360.332520 263.602966,364.488037 270.461700,368.073303 
	C275.819611,370.874054 280.676971,374.635742 286.045868,377.411285 
	C290.992401,379.968506 292.686493,383.397583 292.629059,389.001312 
	C292.345490,416.665070 292.515778,444.333374 292.476227,471.999969 
	C292.472137,474.839874 292.874390,477.051727 295.436218,479.080566 
	C307.413239,488.565765 318.912201,498.671631 331.113556,507.849030 
	C336.728271,512.072205 338.795654,516.585144 338.648499,523.503174 
	C338.226837,543.327515 338.500000,563.166687 338.500000,583.000000 
"/>
<path fill="none" opacity="1.000000" stroke="#000000" stroke-linecap="round" stroke-linejoin="round" stroke-width="13.000000"
	d="
M313.000000,583.000000 
	C313.000000,567.000000 312.969971,550.999878 313.024963,535.000061 
	C313.036133,531.742065 312.485077,529.211609 309.571747,526.909241 
	C297.401520,517.291260 285.642365,507.151215 273.423950,497.597260 
	C269.060883,494.185638 267.198303,490.634460 267.360596,484.996002 
	C267.777649,470.507996 267.372223,455.998108 267.587036,441.501282 
	C267.642883,437.733368 266.817596,434.948425 263.509949,432.983276 
	C259.136169,430.384644 255.000641,427.319153 250.440414,425.123779 
	C247.464508,423.691101 244.039673,422.624420 240.500000,423.500000 
"/>
<path fill="none" opacity="1.000000" stroke="#000000" stroke-linecap="round" stroke-linejoin="round" stroke-width="14.000000"
	d="
M267.500000,167.000000 
	C267.500000,204.166672 267.520355,241.333359 267.467590,278.499939 
	C267.462463,282.103851 267.997070,285.459076 270.000000,288.500000 
"/>
<path fill="none" opacity="1.000000" stroke="#000000" stroke-linecap="round" stroke-linejoin="round" stroke-width="12.000000"
	d="
M341.500000,267.500000 
	C343.899048,270.413605 344.445679,273.804077 344.545990,277.498749 
	C345.310577,305.661621 345.649750,333.826416 345.606903,362.000153 
	C345.601135,365.796936 345.385956,369.837219 347.045868,373.479095 
	C347.562897,374.613434 347.406128,375.381226 347.062836,376.518951 
	C344.522156,384.939667 345.005432,393.465424 346.483246,402.002899 
	C346.623718,402.814484 346.892120,403.463257 346.634216,404.532379 
	C344.678345,412.639832 345.497009,420.741272 345.908722,429.029358 
	C346.233215,435.561554 345.248779,442.655212 345.045288,449.501343 
	C344.846252,456.199432 348.103729,459.367310 355.000336,459.479614 
	C360.998749,459.577332 367.000000,459.500000 373.000000,459.500000 
"/>
<path fill="none" opacity="1.000000" stroke="#000000" stroke-linecap="round" stroke-linejoin="round" stroke-width="11.000000"
	d="
M319.500000,235.000000 
	C327.642303,235.907822 335.328400,233.756943 343.000519,231.501755 
	C347.093781,230.298538 357.709137,234.809052 359.500000,238.500000 
	C362.246246,244.159836 360.046814,252.152771 354.469940,255.449142 
	C349.472046,258.403290 343.909790,260.573578 341.541046,266.516357 
	C341.391937,266.890503 341.429535,266.917633 341.010284,267.036285 
	C329.432587,270.312805 329.147583,280.396484 328.121490,289.513672 
	C326.645660,302.626770 326.165436,315.848969 324.924683,328.992889 
	C324.370087,334.868286 323.047974,340.675476 321.979950,346.496338 
	C321.435181,349.465363 319.514709,350.791046 316.500000,350.500000 
"/>
<path fill="none" opacity="1.000000" stroke="#000000" stroke-linecap="round" stroke-linejoin="round" stroke-width="12.000000"
	d="
M374.250000,394.000000 
	C373.767212,403.373474 375.876740,412.702759 375.319214,421.989136 
	C374.687225,432.516357 376.850891,443.090302 374.872009,453.475616 
	C373.553894,460.392914 375.789856,467.141571 374.601746,474.017578 
	C373.463867,480.602814 373.468109,487.380463 372.434784,493.989807 
	C370.516571,506.259247 368.311340,518.495361 362.014618,529.508362 
	C361.316803,530.728821 360.822235,532.066711 359.000000,531.500000 
"/>
<path fill="none" opacity="1.000000" stroke="#000000" stroke-linecap="round" stroke-linejoin="round" stroke-width="12.000000"
	d="
M404.750000,208.500000 
	C406.208832,216.797073 405.381500,225.166412 405.460449,233.500381 
	C405.601013,248.332367 405.500000,263.166656 405.500000,278.000000 
"/>
<path fill="none" opacity="1.000000" stroke="#000000" stroke-linecap="round" stroke-linejoin="round" stroke-width="12.000000"
	d="
M406.000000,279.000000 
	C404.915344,298.658875 405.775787,318.334259 405.500000,338.000000 
"/>
<path fill="none" opacity="1.000000" stroke="#000000" stroke-linecap="round" stroke-linejoin="round" stroke-width="11.000000"
	d="
M361.500000,274.000000 
	C360.448334,277.120087 360.827057,280.371704 361.073578,283.494202 
	C362.173798,297.430573 363.151428,311.399689 366.750000,325.000000 
"/>
<path fill="none" opacity="1.000000" stroke="#000000" stroke-linecap="round" stroke-linejoin="round" stroke-width="9.000000"
	d="
M530.000000,665.000000 
	C530.000000,654.497375 530.000000,643.994751 530.000000,633.667603 
	C527.167603,632.755920 524.800537,631.270142 522.981689,634.489624 
	C519.348938,640.919800 514.795654,646.851501 512.425964,654.155640 
	C517.495178,657.372131 523.153198,655.926392 528.496277,655.817200 
	C531.018066,655.765686 533.500000,655.937622 536.000000,656.000000 
"/>
<path fill="none" opacity="1.000000" stroke="#000000" stroke-linecap="round" stroke-linejoin="round" stroke-width="14.000000"
	d="
M431.500000,460.500000 
	C431.500000,466.333344 431.500000,472.166656 431.500000,478.000000 
	C431.500000,479.000000 431.129486,480.214111 431.562714,480.963776 
	C433.691010,484.646515 432.821167,488.627625 432.994049,492.500275 
	C433.585083,505.740479 437.597015,518.182129 442.149048,530.444641 
	C442.744385,532.048340 442.774384,533.476074 443.000000,535.000000 
"/>
<path fill="none" opacity="1.000000" stroke="#000000" stroke-linecap="round" stroke-linejoin="round" stroke-width="8.000000"
	d="
M268.500000,630.750000 
	C267.258362,632.300354 265.760956,631.262451 264.513367,630.947144 
	C259.753418,629.744080 255.509140,630.601318 252.032761,634.033203 
	C249.021698,637.005737 249.471924,642.111023 253.041611,644.436096 
	C255.834015,646.254822 258.968842,647.566895 262.008209,648.982422 
	C265.508484,650.612610 268.441956,652.653809 268.488617,657.000122 
	C268.539154,661.708191 265.090271,663.497559 261.490021,664.975647 
	C256.493683,667.026978 250.058090,665.353210 247.500000,661.500000 
"/>
<path fill="none" opacity="1.000000" stroke="#000000" stroke-linecap="round" stroke-linejoin="round" stroke-width="13.000000"
	d="
M413.000000,459.000000 
	C412.666656,465.500000 412.397888,472.004089 411.987549,478.499207 
	C410.879150,496.041138 410.707916,513.792969 402.382629,529.939514 
	C401.381500,531.881104 402.546234,533.371277 402.000000,535.000000 
"/>
<path fill="none" opacity="1.000000" stroke="#000000" stroke-linecap="round" stroke-linejoin="round" stroke-width="10.000000"
	d="
M421.500000,664.500000 
	C421.500000,655.833313 421.520660,647.166626 421.491882,638.500000 
	C421.475830,633.677490 419.307404,632.053772 415.043732,634.091553 
	C412.841888,635.143860 409.414459,635.619202 410.000000,639.500000 
"/>
<path fill="none" opacity="1.000000" stroke="#000000" stroke-linecap="round" stroke-linejoin="round" stroke-width="11.000000"
	d="
M441.500000,420.500000 
	C443.032043,421.503265 444.658630,422.258453 446.499542,422.503357 
	C451.434448,423.159851 455.864349,425.165619 456.331665,430.514709 
	C456.810242,435.992859 455.748413,441.473358 450.510895,445.016113 
	C446.161713,447.957977 437.365875,447.760681 433.500000,444.500000 
	C429.369385,441.016052 427.456085,432.961945 429.481354,427.992401 
	C430.464996,425.578674 432.089142,423.923553 434.499817,422.999481 
	C436.667419,422.168610 438.833344,421.333374 441.000000,420.500031 
"/>
<path fill="none" opacity="1.000000" stroke="#000000" stroke-linecap="round" stroke-linejoin="round" stroke-width="11.000000"
	d="
M440.500000,382.500000 
	C442.666687,383.500000 444.778015,384.650360 447.010437,385.471588 
	C453.510406,387.862762 454.607513,389.607849 454.500000,398.000000 
	C454.434204,403.137207 451.709564,407.113159 446.468628,408.369141 
	C443.923370,408.979126 441.935272,411.373779 438.420532,409.663300 
	C430.459839,405.789215 427.705963,400.196808 429.903931,391.475800 
	C431.245544,386.152435 436.109589,385.583252 439.500000,383.000000 
"/>
<path fill="none" opacity="1.000000" stroke="#000000" stroke-linecap="round" stroke-linejoin="round" stroke-width="12.000000"
	d="
M387.000000,375.750000 
	C377.166656,375.666656 367.332886,375.616730 357.500275,375.480713 
	C354.331909,375.436920 351.166656,375.166626 348.000000,374.999969 
"/>
<path fill="none" opacity="1.000000" stroke="#000000" stroke-linecap="round" stroke-linejoin="round" stroke-width="8.000000"
	d="
M446.500000,665.500000 
	C450.824615,665.947571 454.751831,664.890137 457.974731,661.972107 
	C461.319122,658.944031 463.508606,655.909119 463.460480,650.495911 
	C463.423584,646.349792 464.608978,642.336304 463.118164,637.959778 
	C460.950195,631.595398 454.198730,631.142395 450.009705,632.529297 
	C444.884125,634.226257 442.416351,640.600159 443.996918,645.500977 
	C445.301483,649.546021 449.602020,653.379822 456.484558,650.956177 
	C458.641418,650.196655 460.776123,649.961487 463.000000,650.000000 
"/>
<path fill="none" opacity="1.000000" stroke="#000000" stroke-linecap="round" stroke-linejoin="round" stroke-width="8.000000"
	d="
M480.000000,666.000000 
	C485.318573,665.521118 490.178894,664.153137 494.033478,660.031311 
	C498.574310,655.175659 500.080566,642.148071 496.500031,636.500000 
	C494.067719,632.663025 489.928711,631.043457 485.000000,631.999939 
	C481.689240,632.642517 477.910706,637.428589 477.499939,641.500000 
	C477.106079,645.403687 479.342987,649.109802 482.983612,651.031067 
	C485.151428,652.174988 487.590393,652.040588 489.436890,651.334900 
	C491.964111,650.369019 494.398071,649.990417 497.000000,650.000000 
"/>
<path fill="none" opacity="1.000000" stroke="#000000" stroke-linecap="round" stroke-linejoin="round" stroke-width="12.000000"
	d="
M405.000000,420.500000 
	C406.166656,421.000000 407.290070,421.681763 408.506805,421.971405 
	C418.552917,424.363068 417.909027,438.689209 412.438080,443.935425 
	C408.649719,447.568237 403.631439,447.270996 399.028320,445.904633 
	C394.131287,444.450958 391.769440,440.562286 391.510498,435.499451 
	C391.079620,427.072540 392.487854,425.000885 400.499969,421.999939 
	C401.833496,421.500427 403.166656,421.000000 404.500000,420.500000 
"/>
<path fill="none" opacity="1.000000" stroke="#000000" stroke-linecap="round" stroke-linejoin="round" stroke-width="11.000000"
	d="
M391.000000,395.500000 
	C391.938782,395.710938 392.712524,395.423920 392.984619,394.495483 
	C395.476471,385.993622 403.236450,382.440552 411.022522,385.950012 
	C416.834137,388.569458 416.769196,393.426575 416.489594,398.499420 
	C416.208405,403.601135 413.661621,406.959930 409.511169,408.529572 
	C400.125458,412.079132 393.405334,405.932434 392.500000,396.000000 
"/>
<path fill="none" opacity="1.000000" stroke="#000000" stroke-linecap="round" stroke-linejoin="round" stroke-width="13.000000"
	d="
M451.250000,462.000000 
	C450.481232,466.467407 451.205231,470.988007 450.133789,475.531555 
	C448.355347,483.073303 445.844391,485.780304 438.000549,486.506012 
	C436.663239,486.629791 435.333344,486.833313 434.000000,486.999969 
"/>
<path fill="none" opacity="1.000000" stroke="#000000" stroke-linecap="round" stroke-linejoin="round" stroke-width="12.000000"
	d="
M393.750000,462.000000 
	C393.666656,465.333344 393.597504,468.667084 393.497284,471.999908 
	C393.208832,481.596100 398.859772,485.865723 406.499207,486.509491 
	C407.671570,486.608276 408.833344,486.833313 410.000000,487.000000 
"/>
<path fill="none" opacity="1.000000" stroke="#000000" stroke-linecap="round" stroke-linejoin="round" stroke-width="13.000000"
	d="
M376.000000,340.500031 
	C386.500000,340.166687 397.012512,339.358429 407.496460,339.634430 
	C417.846008,339.906891 428.166656,340.202759 438.500000,339.500000 
"/>
<path fill="none" opacity="1.000000" stroke="#000000" stroke-linecap="round" stroke-linejoin="round" stroke-width="12.000000"
	d="
M373.500000,429.500000 
	C364.666656,429.500000 355.833344,429.500000 347.000000,429.500000 
"/>
<path fill="none" opacity="1.000000" stroke="#000000" stroke-linecap="round" stroke-linejoin="round" stroke-width="12.000000"
	d="
M431.500000,278.750000 
	C427.479919,279.630157 423.486084,278.552979 419.505280,278.379303 
	C407.956238,277.875336 396.461945,277.775879 384.996124,279.473846 
	C383.691406,279.667053 382.333344,279.500000 381.000000,279.500000 
"/>
<path fill="none" opacity="1.000000" stroke="#000000" stroke-linecap="round" stroke-linejoin="round" stroke-width="7.000000"
	d="
M364.500000,654.000000 
	C370.831573,653.477844 377.352905,655.358887 383.460663,652.443787 
	C382.489014,649.670532 383.608124,646.264282 380.550537,643.933716 
	C377.396820,641.529846 374.232880,640.577881 370.503296,642.008606 
	C366.616730,643.499451 364.548004,646.380920 363.986420,650.498169 
	C361.900726,665.788757 372.157776,667.279602 382.500000,665.500000 
"/>
<path fill="none" opacity="1.000000" stroke="#000000" stroke-linecap="round" stroke-linejoin="round" stroke-width="10.000000"
	d="
M302.500000,646.500000 
	C304.503326,646.674988 305.948792,645.673645 307.535217,644.549683 
	C313.931549,640.017761 318.930573,642.642395 320.646027,650.467957 
	C321.706879,655.307373 321.225586,659.833313 320.500000,664.500000 
"/>
<path fill="none" opacity="1.000000" stroke="#000000" stroke-linecap="round" stroke-linejoin="round" stroke-width="10.000000"
	d="
M284.500000,643.500000 
	C284.500000,650.500000 284.500000,657.500000 284.500000,664.500000 
"/>
<path fill="none" opacity="1.000000" stroke="#000000" stroke-linecap="round" stroke-linejoin="round" stroke-width="8.000000"
	d="
M353.000000,645.500000 
	C352.556519,642.149292 351.028229,641.156311 347.477875,641.893494 
	C340.889771,643.261414 337.151947,646.176636 336.500031,651.500000 
	C335.646667,658.467834 337.766083,662.943237 343.006500,664.983337 
	C345.755524,666.053650 348.669128,665.291321 351.500000,665.500000 
"/>
<path fill="none" opacity="1.000000" stroke="#000000" stroke-linecap="round" stroke-linejoin="round" stroke-width="12.000000"
	d="
M373.000000,403.000000 
	C364.516815,404.023560 355.998718,403.267303 347.500000,403.500000 
"/>
<path fill="none" opacity="1.000000" stroke="#000000" stroke-linecap="round" stroke-linejoin="round" stroke-width="10.000000"
	d="
M301.000000,643.000000 
	C302.025940,650.146667 301.247437,657.335327 301.500000,664.500000 
"/>
<path fill="none" opacity="1.000000" stroke="#000000" stroke-linecap="round" stroke-linejoin="round" stroke-width="3.000000"
	d="
M367.500000,143.500000 
	C364.502502,143.711609 361.453796,143.001648 358.500000,144.000000 
"/>
</svg>